<?xml version="1.0" encoding="UTF-8" standalone="no"?>
<!DOCTYPE svg PUBLIC "-//W3C//DTD SVG 1.1//EN" "http://www.w3.org/Graphics/SVG/1.1/DTD/svg11.dtd">
<svg width="100%" height="100%" viewBox="0 0 3183 2865" version="1.1" xmlns="http://www.w3.org/2000/svg" xmlns:xlink="http://www.w3.org/1999/xlink" xml:space="preserve" xmlns:serif="http://www.serif.com/" style="fill-rule:evenodd;clip-rule:evenodd;stroke-linejoin:round;stroke-miterlimit:2;">
    <g id="Artboard1" transform="matrix(1,0,0,1,-160.883009,-315.702597)">
        <rect x="160.883" y="315.703" width="3182.648" height="2864.384" style="fill:none;"/>
        <g transform="matrix(1,0,0,1,-141.14775,598.566487)">
            <path d="M1375.846,701.575L1563.005,701.575C1668.383,701.575 1753.937,787.128 1753.937,892.507L1753.937,2305.251C1753.937,2410.629 1668.383,2496.183 1563.005,2496.183L603.997,2496.183C498.619,2496.183 413.065,2410.629 413.065,2305.251L413.065,892.507C413.065,787.128 498.619,701.575 603.997,701.575L791.156,701.575L791.156,287.54C791.156,274.787 797.785,263.57 807.783,257.151L807.783,-41.778L736.841,-41.778C720.584,-41.778 707.387,-54.975 707.387,-71.232L707.387,-130.139C707.387,-146.395 720.584,-159.593 736.841,-159.593L1430.161,-159.593C1446.417,-159.593 1459.615,-146.395 1459.615,-130.139L1459.615,-71.232C1459.615,-54.975 1446.417,-41.778 1430.161,-41.778L1359.219,-41.778L1359.219,257.151C1369.216,263.57 1375.846,274.787 1375.846,287.54L1375.846,701.575ZM1124.681,906.206C1124.681,877.443 1101.329,854.091 1072.566,854.091C1043.802,854.091 1020.45,877.443 1020.45,906.206L1020.45,2291.551C1020.45,2320.315 1043.802,2343.667 1072.566,2343.667C1101.329,2343.667 1124.681,2320.315 1124.681,2291.551L1124.681,906.206ZM1254.715,1338.951L1254.715,2291.551C1254.715,2320.315 1278.067,2343.667 1306.83,2343.667C1335.593,2343.667 1358.945,2320.315 1358.945,2291.551L1358.945,1400.18L1479.219,1470.834L1479.219,2291.551C1479.219,2320.315 1502.571,2343.667 1531.334,2343.667C1560.097,2343.667 1583.449,2320.315 1583.449,2291.551L1583.449,1448.79L1705.464,1241.085L1583.449,1169.408L1583.449,906.206C1583.449,877.443 1560.097,854.091 1531.334,854.091C1502.571,854.091 1479.219,877.443 1479.219,906.206L1479.219,1108.178L1358.945,1037.525L1358.945,906.206C1358.945,877.443 1335.593,854.091 1306.83,854.091C1278.067,854.091 1254.715,877.443 1254.715,906.206L1254.715,1086.83L1144.606,1274.268L1254.715,1338.951ZM935.51,701.575L1231.492,701.575L1231.492,287.54C1231.492,274.787 1238.122,263.57 1248.12,257.151L1248.12,-41.778L918.882,-41.778L918.882,257.151C928.88,263.57 935.51,274.787 935.51,287.54L935.51,701.575ZM561.682,2112.894L561.682,2291.551C561.682,2320.315 585.034,2343.667 613.797,2343.667C642.56,2343.667 665.912,2320.315 665.912,2291.551L665.912,2165.177L789.439,2101.456L789.439,2291.551C789.439,2320.315 812.791,2343.667 841.555,2343.667C870.318,2343.667 893.67,2320.315 893.67,2291.551L893.67,2047.689L1019.731,1982.661L893.67,1738.283L893.67,906.206C893.67,877.443 870.318,854.091 841.555,854.091C812.791,854.091 789.439,877.443 789.439,906.206L789.439,1749.61L665.912,1813.331L665.912,906.206C665.912,877.443 642.56,854.091 613.797,854.091C585.034,854.091 561.682,877.443 561.682,906.206L561.682,1867.098L461.538,1918.757L561.682,2112.894Z" style="fill:white;"/>
        </g>
        <g transform="matrix(0,-0.783886,0.869688,0,1066.821675,3410.410861)">
            <path d="M1753.937,1915.909L1753.937,2324.088C1753.937,2419.07 1668.383,2496.183 1563.005,2496.183L603.997,2496.183C498.619,2496.183 413.065,2419.07 413.065,2324.088L413.065,873.67C413.065,778.688 498.619,701.575 603.997,701.575L1563.005,701.575C1668.383,701.575 1753.937,778.688 1753.937,873.67L1753.937,1281.848L2134.783,1281.848C2154.339,1281.848 2170.215,1296.159 2170.215,1313.785L2170.215,1883.973C2170.215,1901.599 2154.339,1915.909 2134.783,1915.909L1753.937,1915.909ZM1753.937,1409.594L1753.937,1788.163L2019.918,1788.163L2019.918,1409.594L1753.937,1409.594ZM1480.891,967.399C1517.584,967.399 1547.375,940.548 1547.375,907.475C1547.375,874.402 1517.584,847.551 1480.891,847.551L663.735,847.551C627.042,847.551 597.252,874.402 597.252,907.475C597.252,940.548 627.042,967.399 663.735,967.399L1480.891,967.399ZM1420.35,2222.537L1600.893,1982.717L1422.844,1873.821L1242.302,2113.641L1420.35,2222.537ZM1107.223,2313.432L1188.886,1927.145L977.368,1891.561L895.857,2277.13L1107.223,2313.432Z" style="fill:white;"/>
        </g>
        <g transform="matrix(0.911325,0.639639,-0.639639,0.911325,2665.210513,-1800.779431)">
            <g transform="matrix(67.732758,0,0,67.732758,2324.715255,2950.363394)">
            </g>
            <text x="2166.529px" y="2950.363px" style="font-family:'ArialMT', 'Arial', sans-serif;font-size:67.733px;fill:white;">Saba</text>
        </g>
        <g transform="matrix(0.89128,0.176424,-0.176424,0.89128,1343.609295,-747.179047)">
            <g transform="matrix(67.732758,0,0,67.732758,2563.54961,3310.138191)">
            </g>
            <text x="2213.443px" y="3310.138px" style="font-family:'ArialMT', 'Arial', sans-serif;font-size:67.733px;fill:white;">Jamberidze</text>
        </g>
    </g>
</svg>
